<svg xmlns="http://www.w3.org/2000/svg" xmlns:xlink="http://www.w3.org/1999/xlink" width="864" zoomAndPan="magnify" viewBox="0 0 648 753.75" height="1005" preserveAspectRatio="xMidYMid meet" version="1.2"><defs><clipPath id="997d7cc083"><path d="M 274 375 L 376.136719 375 L 376.136719 449 L 274 449 Z M 274 375 "/></clipPath><clipPath id="d7f15e0e67"><path d="M 248.980469 329 L 326 329 L 326 461 L 248.980469 461 Z M 248.980469 329 "/></clipPath><clipPath id="4555566c32"><path d="M 290 291.75 L 324 291.75 L 324 324 L 290 324 Z M 290 291.75 "/></clipPath></defs><g id="bef55f809a"><path style=" stroke:none;fill-rule:nonzero;fill:#0056d2;fill-opacity:1;" d="M 358.738281 630.253906 C 351.992188 631.851562 345.183594 633.1875 338.335938 634.269531 L 266.382812 645.585938 C 256.078125 647.203125 246.414062 640.167969 244.792969 629.863281 C 243.171875 619.558594 250.207031 609.890625 260.511719 608.269531 L 333.179688 596.839844 C 338.585938 595.988281 344.046875 594.914062 349.394531 593.652344 L 384.511719 585.34375 C 384.898438 585.25 385.007812 584.945312 385.007812 584.929688 C 382.496094 562.695312 384.726562 540.191406 391.625 518.0625 C 396.5625 502.242188 404.410156 486.359375 414.949219 470.855469 C 416.125 469.117188 417.28125 467.339844 418.386719 465.554688 C 461.648438 395.472656 439.839844 303.253906 369.761719 259.988281 C 335.808594 239.027344 295.726562 232.539062 256.902344 241.726562 C 218.078125 250.910156 185.152344 274.667969 164.191406 308.613281 C 123.941406 373.8125 140.015625 458.167969 198.878906 504.445312 C 206.496094 510.4375 208.558594 521.09375 203.460938 529.335938 C 197.519531 538.96875 184.527344 541.199219 175.628906 534.21875 C 101.785156 476.253906 81.59375 370.503906 132.050781 288.773438 C 158.3125 246.238281 199.5625 216.476562 248.207031 204.972656 C 296.851562 193.464844 347.0625 201.589844 389.601562 227.851562 C 477.40625 282.058594 504.726562 397.59375 450.511719 485.414062 C 449.117188 487.671875 447.675781 489.890625 446.1875 492.074219 C 437.738281 504.511719 431.511719 517.046875 427.683594 529.308594 C 422.355469 546.410156 420.625 563.695312 422.539062 580.695312 C 424.699219 599.832031 412.089844 617.632812 393.207031 622.101562 L 358.738281 630.253906 "/><path style=" stroke:none;fill-rule:nonzero;fill:#0056d2;fill-opacity:1;" d="M 389.542969 678.921875 C 363.78125 685.019531 318.882812 694.300781 270.203125 698.300781 C 259.558594 699.175781 250.28125 691.078125 249.753906 680.40625 C 249.246094 670.183594 256.984375 661.492188 267.183594 660.644531 C 315.316406 656.660156 360.410156 647.039062 384.207031 641.328125 C 394.0625 638.960938 403.996094 644.808594 406.746094 654.566406 L 406.761719 654.601562 C 409.667969 664.902344 403.460938 675.574219 393.058594 678.085938 C 391.929688 678.351562 390.761719 678.632812 389.542969 678.921875 "/><path style=" stroke:none;fill-rule:nonzero;fill:#0056d2;fill-opacity:1;" d="M 262.207031 732.933594 C 262.3125 722.773438 270.449219 714.53125 280.597656 714.261719 C 326.902344 713.03125 363.144531 705.5625 382.863281 700.480469 C 392.324219 698.035156 402.046875 703.210938 405.339844 712.402344 L 405.359375 712.445312 C 409.097656 722.886719 403.097656 734.296875 392.363281 737.078125 C 389.835938 737.734375 387.085938 738.421875 384.121094 739.125 C 361.332031 744.515625 325.769531 750.871094 281.597656 752.019531 C 270.902344 752.300781 262.09375 743.632812 262.207031 732.9375 L 262.207031 732.933594 "/><path style=" stroke:none;fill-rule:nonzero;fill:#3181f4;fill-opacity:1;" d="M 123.265625 694.121094 C 126.847656 689.933594 133.035156 683.089844 141.734375 674.839844 C 143.082031 686.488281 145.125 701.675781 147.886719 715.976562 C 139.796875 711.742188 131.851562 707.074219 124.257812 701.863281 C 121.683594 700.105469 121.242188 696.492188 123.265625 694.121094 "/><path style=" stroke:none;fill-rule:nonzero;fill:#0056d2;fill-opacity:1;" d="M 241.335938 610.679688 C 237.140625 616.375 235.125 623.667969 236.3125 631.199219 C 237.453125 638.445312 241.347656 644.816406 247.28125 649.132812 C 250.671875 651.609375 254.507812 653.210938 258.523438 653.9375 C 247.777344 658.15625 240.574219 668.746094 241.179688 680.832031 C 241.550781 688.324219 244.863281 695.175781 250.511719 700.125 C 256.164062 705.082031 263.410156 707.472656 270.910156 706.851562 C 271.253906 706.824219 271.597656 706.796875 271.9375 706.765625 L 272.027344 707.316406 C 261.367188 711.015625 253.738281 720.945312 253.621094 732.839844 C 253.546875 739.761719 256.03125 746.253906 260.59375 751.371094 C 238.746094 747.957031 200.730469 740.160156 163.515625 723.546875 C 158.824219 703.199219 155.746094 677.285156 154.320312 663.542969 C 174.757812 646.160156 203.984375 625.734375 241.335938 610.679688 "/><path style=" stroke:none;fill-rule:nonzero;fill:#3181f4;fill-opacity:1;" d="M 274.015625 281.613281 C 284.457031 279.148438 294.898438 278.320312 305.078125 278.945312 C 298.96875 279.300781 292.816406 280.160156 286.660156 281.613281 C 229.394531 295.160156 193.953125 352.5625 207.5 409.828125 C 218.578125 456.65625 258.980469 488.867188 304.652344 491.65625 C 253.972656 494.625 206.949219 460.933594 194.859375 409.828125 C 181.3125 352.5625 216.753906 295.160156 274.015625 281.613281 Z M 170.542969 415.429688 C 187.183594 485.777344 257.707031 529.316406 328.054688 512.679688 C 398.402344 496.035156 441.941406 425.515625 425.304688 355.167969 C 408.660156 284.816406 338.136719 241.277344 267.792969 257.921875 C 197.441406 274.5625 153.902344 345.085938 170.542969 415.429688 "/><path style=" stroke:none;fill-rule:nonzero;fill:#3181f4;fill-opacity:1;" d="M 21.625 214.871094 C 40.242188 213.125 92.207031 282.769531 92.207031 282.769531 C 107.226562 301.800781 25.421875 250.40625 12.769531 244.015625 C 0.121094 237.625 3.003906 216.625 21.625 214.871094 "/><path style=" stroke:none;fill-rule:nonzero;fill:#3181f4;fill-opacity:1;" d="M 94.71875 82.277344 C 118.226562 88.632812 149.84375 197.28125 149.84375 197.28125 C 159.476562 227.347656 83.144531 127.339844 70.625 113.78125 C 58.113281 100.214844 71.207031 75.917969 94.71875 82.277344 "/><path style=" stroke:none;fill-rule:nonzero;fill:#3181f4;fill-opacity:1;" d="M 223.058594 38.277344 C 217.207031 18.226562 242.726562 0.203125 263.351562 18.488281 C 283.972656 36.78125 261.261719 162.820312 261.261719 162.820312 C 255.875 198.144531 228.90625 58.332031 223.058594 38.277344 "/><path style=" stroke:none;fill-rule:nonzero;fill:#3181f4;fill-opacity:1;" d="M 390.304688 175.671875 C 370.800781 205.609375 404.023438 67.144531 406.988281 46.472656 C 409.949219 25.796875 440.628906 19.921875 451.855469 45.101562 C 463.074219 70.28125 390.304688 175.671875 390.304688 175.671875 "/><path style=" stroke:none;fill-rule:nonzero;fill:#3181f4;fill-opacity:1;" d="M 469.394531 250.703125 C 433.910156 254.902344 561.527344 191.738281 579.300781 180.769531 C 597.074219 169.800781 621.242188 189.605469 609.085938 214.355469 C 596.9375 239.09375 469.394531 250.703125 469.394531 250.703125 "/><path style=" stroke:none;fill-rule:nonzero;fill:#3181f4;fill-opacity:1;" d="M 617.777344 331.191406 C 635.53125 329.019531 647.246094 353.085938 628.933594 367.992188 C 610.617188 382.898438 507.195312 346.273438 507.195312 346.273438 C 478.078125 336.824219 600.011719 333.363281 617.777344 331.191406 "/><path style=" stroke:none;fill-rule:nonzero;fill:#3181f4;fill-opacity:1;" d="M 591.339844 459.894531 C 606.421875 464.046875 607.894531 487.40625 588.121094 493.371094 C 568.351562 499.335938 496.886719 435.304688 496.886719 435.304688 C 476.476562 417.980469 576.246094 455.742188 591.339844 459.894531 "/><path style=" stroke:none;fill-rule:nonzero;fill:#3181f4;fill-opacity:1;" d="M 519.050781 552.09375 C 528.203125 557.085938 525.59375 572.457031 511.863281 573.3125 C 498.132812 574.164062 461.558594 521.753906 461.558594 521.753906 C 450.96875 507.410156 509.902344 547.105469 519.050781 552.09375 "/><g clip-rule="nonzero" clip-path="url(#997d7cc083)"><path style=" stroke:none;fill-rule:nonzero;fill:#ffffff;fill-opacity:1;" d="M 376.101562 375.175781 L 329.460938 375.175781 C 318.96875 410.449219 274.710938 445.585938 274.710938 445.585938 L 314.09375 420.226562 L 352.414062 448.070312 L 337.777344 403.019531 L 376.101562 375.175781 "/></g><path style=" stroke:none;fill-rule:nonzero;fill:#ffffff;fill-opacity:1;" d="M 306.269531 342.207031 L 285.96875 343.210938 L 275.457031 360.609375 L 283.035156 360.234375 L 287.167969 367.15625 L 306.480469 355.621094 L 302.347656 348.703125 L 306.269531 342.207031 "/><path style=" stroke:none;fill-rule:nonzero;fill:#ffffff;fill-opacity:1;" d="M 309.503906 349.394531 C 308.828125 348.136719 307.882812 347.265625 306.355469 346.433594 C 305.433594 345.933594 304.921875 345.457031 304.789062 344.980469 C 304.707031 344.691406 304.761719 344.382812 304.960938 344.042969 L 304.160156 343.582031 C 303.835938 344.140625 303.75 344.699219 303.902344 345.234375 C 304.175781 346.203125 305.179688 346.847656 305.914062 347.246094 C 307.210938 347.953125 308.019531 348.660156 308.601562 349.671875 L 308.402344 351.949219 L 310.265625 351.882812 L 311.328125 350.347656 L 309.503906 349.394531 "/><g clip-rule="nonzero" clip-path="url(#d7f15e0e67)"><path style=" stroke:none;fill-rule:nonzero;fill:#ffffff;fill-opacity:1;" d="M 310.570312 329.511719 C 310.570312 329.511719 326.886719 360.230469 305.972656 372.875 C 305.238281 373.316406 304.464844 373.699219 303.65625 374.039062 L 307.832031 391.121094 L 303.054688 399.5 L 298.277344 391.792969 L 300.671875 375.039062 C 281.691406 379.921875 248.96875 363.910156 248.96875 363.910156 C 268.121094 381.226562 297.851562 402.375 252.183594 460.910156 C 252.183594 460.910156 319.304688 407.277344 325.207031 374.5625 C 329.941406 348.316406 310.570312 329.511719 310.570312 329.511719 Z M 295.09375 370.5 C 301.695312 370.5 307.042969 365.148438 307.042969 358.546875 C 307.042969 351.945312 301.695312 346.59375 295.09375 346.59375 C 288.492188 346.59375 283.140625 351.945312 283.140625 358.546875 C 283.140625 365.148438 288.492188 370.5 295.09375 370.5 "/></g><g clip-rule="nonzero" clip-path="url(#4555566c32)"><path style=" stroke:none;fill-rule:nonzero;fill:#ffffff;fill-opacity:1;" d="M 307.34375 291.824219 L 311.222656 303.769531 L 323.78125 303.769531 L 313.621094 311.148438 L 317.5 323.09375 L 307.34375 315.710938 L 297.183594 323.09375 L 301.0625 311.148438 L 290.902344 303.769531 L 303.460938 303.769531 L 307.34375 291.824219 "/></g><path style=" stroke:none;fill-rule:nonzero;fill:#ffffff;fill-opacity:1;" d="M 341.296875 314.984375 L 339.28125 321.1875 L 332.757812 321.1875 L 338.035156 325.023438 L 336.019531 331.226562 L 341.296875 327.390625 L 346.574219 331.226562 L 344.558594 325.023438 L 349.835938 321.1875 L 343.3125 321.1875 L 341.296875 314.984375 "/><path style=" stroke:none;fill-rule:nonzero;fill:#ffffff;fill-opacity:1;" d="M 273.386719 314.984375 L 271.371094 321.1875 L 264.84375 321.1875 L 270.125 325.023438 L 268.109375 331.226562 L 273.386719 327.390625 L 278.664062 331.226562 L 276.648438 325.023438 L 281.925781 321.1875 L 275.402344 321.1875 L 273.386719 314.984375 "/></g></svg>